<svg xmlns="http://www.w3.org/2000/svg" width="321" height="89" viewBox="0 0 84.917 23.456"><path d="M0 .586h7.154q2.088 0 3.448 1.196 1.36 1.173 1.36 4.597 0 5.958-4.762 5.958-.727 0-2.135-.117-1.407-.117-2.18-.235v5.91H0zM6.78 9.71q1.08 0 1.665-.774.6-.774.6-2.533 0-3.213-2.18-3.213H2.885v6.52z"/><path d="M19.568 18.038q-1.994 0-3.2-.563-1.196-.563-1.783-1.947-.563-1.407-.563-3.917 0-2.58.586-3.964.586-1.407 1.76-1.923 1.196-.54 3.2-.54 1.994 0 3.167.54 1.196.54 1.783 1.947.586 1.384.586 3.94 0 2.533-.586 3.94-.563 1.384-1.76 1.947-1.173.54-3.2.54zm0-1.923q1.173 0 1.83-.305.68-.328 1-1.3.352-.985.352-2.932 0-1.947-.352-2.9-.328-.985-1-1.3-.657-.305-1.83-.305-1.196 0-1.853.305-.633.305-.985 1.3-.328.962-.328 2.9 0 1.97.328 2.955.352.962.985 1.267.657.305 1.853.305zm12.787 1.923q-1.173 0-2.697-.117-1.5-.094-2.135-.28v-1.407H32.8q1.126 0 1.665-.305.54-.328.54-1.3v-.516q0-1.5-2.017-1.5h-1.83q-1.806 0-2.8-.727-.985-.75-.985-2.463v-.68q0-1.806 1.056-2.65 1.08-.868 3.542-.868 1.032 0 2.416.14 1.384.117 2.135.28V7.06H31.56q-1.102 0-1.618.375-.516.375-.516 1.314v.47q0 .9.493 1.173.516.28 1.642.28h1.876q1.76 0 2.674.82.938.82.938 2.346v.962q0 1.806-1.196 2.533-1.173.704-3.495.704z" fill="#2a6395"/><path d="M39.72.586h7.154q2.088 0 3.448 1.196 1.36 1.173 1.36 4.597 0 5.958-4.762 5.958-.727 0-2.135-.117-1.407-.117-2.18-.235v5.91H39.72zm6.78 9.124q1.08 0 1.665-.774.6-.774.6-2.533 0-3.213-2.18-3.213h-3.988v6.52z"/><path d="M57.67 17.92q-1.783 0-2.65-.938-.844-.938-.844-3.12V0h2.346v13.558q0 1.384.375 1.9.4.516 1.243.633l1.173.14v1.7zm6.07.118q-1.407 0-2.3-.844-.9-.844-.9-2.3V13.9q0-1.5 1-2.393 1.032-.915 3.002-.915h3.917V9.3q0-.774-.258-1.243-.258-.493-.938-.75-.657-.258-1.9-.258h-3.847V5.653q2.064-.47 4.644-.493 2.393 0 3.518.938 1.15.915 1.15 3.026v8.773h-1.853l-.4-1.407q-.2.188-1 .563-.774.375-1.83.68-1.032.305-2.017.305zm1.126-1.712q.563 0 1.36-.188.798-.2 1.478-.446.704-.258.774-.305v-3.612l-3.284.14q-2.275.14-2.275 2.017v.563q0 .962.563 1.407.563.422 1.384.422zm14.257 1.57q-1.22-.024-2.135-.75-.915-.727-1.36-2.322L72.813 5.35h2.463l2.533 8.984q.516 1.595 1.76 1.595l2.93-10.58h2.416L80.6 21.134l-1.126 2.322h-1.876z" fill="#0078e7"/></svg>