<?xml version="1.0" standalone="no"?>
<!DOCTYPE svg PUBLIC "-//W3C//DTD SVG 20010904//EN"
 "http://www.w3.org/TR/2001/REC-SVG-20010904/DTD/svg10.dtd">
<svg version="1.0" xmlns="http://www.w3.org/2000/svg"
 width="16.000000pt" height="16.000000pt" viewBox="0 0 16.000000 16.000000"
 preserveAspectRatio="xMidYMid meet">
<metadata>
Created by potrace 1.11, written by Peter Selinger 2001-2013
</metadata>
<g transform="translate(0.000000,16.000000) scale(0.006154,-0.006154)"
fill="#000000" stroke="none">
<path d="M1343 2280 c-18 -6 -39 -21 -47 -33 -14 -22 -66 -490 -66 -593 0 -48
3 -53 134 -216 l133 -167 -22 -111 c-12 -61 -24 -113 -27 -115 -2 -2 -20 49
-41 114 -20 65 -44 128 -54 139 -10 12 -101 66 -203 120 l-185 99 -82 258
c-54 169 -90 266 -104 281 -39 42 -82 30 -200 -57 -128 -95 -237 -236 -298
-386 -18 -43 -36 -87 -41 -99 -4 -12 -60 -58 -124 -103 l-116 -83 0 -664 0
-664 278 0 277 0 167 118 c92 64 193 135 224 156 l57 39 136 2 c151 1 238 18
356 67 38 16 120 42 180 57 129 33 250 90 352 167 l72 54 251 0 250 0 0 705 0
705 -270 0 -269 0 -65 45 c-85 60 -216 121 -313 146 -89 23 -290 34 -340 19z
m309 -175 c374 -97 629 -470 578 -846 -47 -346 -288 -602 -633 -673 -43 -9
-101 -28 -127 -41 -97 -49 -194 -69 -330 -69 -145 0 -213 15 -337 75 -240 115
-399 339 -434 609 -20 156 20 348 102 487 36 60 184 223 203 223 6 0 40 -91
75 -202 35 -112 69 -217 76 -234 11 -27 42 -47 207 -135 l195 -103 87 -263
c91 -273 101 -293 154 -293 34 0 58 16 70 47 16 40 122 568 122 606 0 26 -25
63 -135 201 -74 93 -135 171 -135 175 0 3 10 109 22 235 l22 229 78 -6 c42 -4
106 -14 140 -22z"/>
</g>
</svg>
